<?xml version="1.0" encoding="UTF-8"?>
<svg xmlns="http://www.w3.org/2000/svg" xmlns:xlink="http://www.w3.org/1999/xlink" width="65px" height="64px" viewBox="0 0 65 64" version="1.1">
<g id="surface1">
<path style=" stroke:none;fill-rule:evenodd;fill:rgb(0,0,0);fill-opacity:1;" d="M 32.402344 0 C 14.484375 0 0 14.667969 0 32.8125 C 0 47.316406 9.28125 59.59375 22.15625 63.9375 C 23.765625 64.265625 24.355469 63.230469 24.355469 62.363281 C 24.355469 61.601562 24.300781 58.996094 24.300781 56.277344 C 15.289062 58.234375 13.410156 52.367188 13.410156 52.367188 C 11.964844 48.566406 9.816406 47.585938 9.816406 47.585938 C 6.867188 45.578125 10.03125 45.578125 10.03125 45.578125 C 13.304688 45.792969 15.023438 48.945312 15.023438 48.945312 C 17.917969 53.941406 22.585938 52.53125 24.464844 51.660156 C 24.730469 49.542969 25.589844 48.074219 26.503906 47.261719 C 19.3125 46.5 11.75 43.675781 11.75 31.074219 C 11.75 27.488281 13.035156 24.554688 15.074219 22.273438 C 14.753906 21.457031 13.625 18.089844 15.398438 13.582031 C 15.398438 13.582031 18.132812 12.710938 24.300781 16.949219 C 26.941406 16.230469 29.667969 15.863281 32.402344 15.863281 C 35.140625 15.863281 37.929688 16.242188 40.503906 16.949219 C 46.671875 12.710938 49.410156 13.582031 49.410156 13.582031 C 51.179688 18.089844 50.050781 21.457031 49.730469 22.273438 C 51.824219 24.554688 53.058594 27.488281 53.058594 31.074219 C 53.058594 43.675781 45.492188 46.445312 38.25 47.261719 C 39.429688 48.292969 40.449219 50.25 40.449219 53.34375 C 40.449219 57.746094 40.398438 61.277344 40.398438 62.363281 C 40.398438 63.230469 40.988281 64.265625 42.597656 63.9375 C 55.472656 59.59375 64.753906 47.316406 64.753906 32.8125 C 64.804688 14.667969 50.265625 0 32.402344 0 Z M 32.402344 0 "/>
</g>
</svg>
