<?xml version="1.0" encoding="UTF-8"?>
<svg xmlns="http://www.w3.org/2000/svg" xmlns:xlink="http://www.w3.org/1999/xlink" width="53px" height="32px" viewBox="0 0 52 32" version="1.1">
<g id="surface1">
<path style=" stroke:none;fill-rule:nonzero;fill:rgb(0%,0%,0%);fill-opacity:1;" d="M 1.378906 1.898438 C 3.644531 4.398438 24.816406 19.300781 26.097656 19.300781 C 27.378906 19.300781 49.539062 3.601562 51.210938 1.5 C 52.296875 0.199219 49.046875 0 26.097656 0 C 0.195312 0 -0.296875 0 1.378906 1.898438 Z M 1.378906 1.898438 "/>
<path style=" stroke:none;fill-rule:nonzero;fill:rgb(0%,0%,0%);fill-opacity:1;" d="M 0 16.398438 L 0 26.898438 L 7.386719 21.699219 C 11.425781 18.898438 14.773438 16.300781 14.773438 16 C 14.675781 15.5 2.460938 6.800781 0.789062 6.199219 C 0.394531 6 0 10.601562 0 16.398438 Z M 0 16.398438 "/>
<path style=" stroke:none;fill-rule:nonzero;fill:rgb(0%,0%,0%);fill-opacity:1;" d="M 44.121094 10.800781 C 40.476562 13.398438 37.523438 15.800781 37.425781 16.101562 C 37.425781 16.398438 40.773438 19 44.8125 21.898438 L 52.195312 27.101562 L 52.195312 16.601562 C 52.195312 10.699219 51.902344 6 51.507812 6 C 51.015625 6.101562 47.765625 8.199219 44.121094 10.800781 Z M 44.121094 10.800781 "/>
<path style=" stroke:none;fill-rule:nonzero;fill:rgb(0%,0%,0%);fill-opacity:1;" d="M 9.945312 23.5 C -2.660156 32.699219 -4.039062 32 25.902344 32 C 42.347656 32 52.097656 31.601562 51.703125 31.101562 C 51.410156 30.5 47.273438 27.398438 42.644531 24.101562 L 34.074219 18 L 31.121094 20.300781 C 26.195312 24.101562 26.097656 24.101562 22.0625 21 C 19.992188 19.398438 18.023438 18.101562 17.726562 18.101562 C 17.433594 18.101562 13.984375 20.601562 9.945312 23.5 Z M 9.945312 23.5 "/>
</g>
</svg>
